<svg id="visual" viewBox="0 0 1050 540" width="1050" height="540" xmlns="http://www.w3.org/2000/svg" xmlns:xlink="http://www.w3.org/1999/xlink" version="1.1"><rect x="0" y="0" width="1050" height="540" fill="#090e21"></rect><defs><linearGradient id="grad1_0" x1="48.6%" y1="0%" x2="100%" y2="100%"><stop offset="11.111111111111112%" stop-color="#76d32f" stop-opacity="1"></stop><stop offset="88.88888888888889%" stop-color="#76d32f" stop-opacity="1"></stop></linearGradient></defs><defs><linearGradient id="grad1_1" x1="48.6%" y1="0%" x2="100%" y2="100%"><stop offset="11.111111111111112%" stop-color="#76d32f" stop-opacity="1"></stop><stop offset="88.88888888888889%" stop-color="#00957d" stop-opacity="1"></stop></linearGradient></defs><defs><linearGradient id="grad1_2" x1="48.6%" y1="0%" x2="100%" y2="100%"><stop offset="11.111111111111112%" stop-color="#004e71" stop-opacity="1"></stop><stop offset="88.88888888888889%" stop-color="#00957d" stop-opacity="1"></stop></linearGradient></defs><defs><linearGradient id="grad1_3" x1="48.6%" y1="0%" x2="100%" y2="100%"><stop offset="11.111111111111112%" stop-color="#004e71" stop-opacity="1"></stop><stop offset="88.88888888888889%" stop-color="#090e21" stop-opacity="1"></stop></linearGradient></defs><defs><linearGradient id="grad2_0" x1="0%" y1="0%" x2="51.4%" y2="100%"><stop offset="11.111111111111112%" stop-color="#76d32f" stop-opacity="1"></stop><stop offset="88.88888888888889%" stop-color="#76d32f" stop-opacity="1"></stop></linearGradient></defs><defs><linearGradient id="grad2_1" x1="0%" y1="0%" x2="51.4%" y2="100%"><stop offset="11.111111111111112%" stop-color="#00957d" stop-opacity="1"></stop><stop offset="88.88888888888889%" stop-color="#76d32f" stop-opacity="1"></stop></linearGradient></defs><defs><linearGradient id="grad2_2" x1="0%" y1="0%" x2="51.4%" y2="100%"><stop offset="11.111111111111112%" stop-color="#00957d" stop-opacity="1"></stop><stop offset="88.88888888888889%" stop-color="#004e71" stop-opacity="1"></stop></linearGradient></defs><defs><linearGradient id="grad2_3" x1="0%" y1="0%" x2="51.4%" y2="100%"><stop offset="11.111111111111112%" stop-color="#090e21" stop-opacity="1"></stop><stop offset="88.88888888888889%" stop-color="#004e71" stop-opacity="1"></stop></linearGradient></defs><g transform="translate(1050, 0)"><path d="M0 270C-27.5 260.8 -55 251.7 -77.3 237.8C-99.5 223.9 -116.5 205.3 -139.9 192.5C-163.3 179.8 -193 172.9 -214.4 155.8C-235.8 138.6 -248.9 111.1 -256.8 83.4C-264.7 55.8 -267.3 27.9 -270 0L0 0Z" fill="#002c4c"></path><path d="M0 202.5C-20.6 195.6 -41.2 188.7 -57.9 178.3C-74.6 167.9 -87.4 154 -104.9 144.4C-122.4 134.9 -144.7 129.7 -160.8 116.8C-176.8 103.9 -186.7 83.3 -192.6 62.6C-198.5 41.8 -200.5 20.9 -202.5 0L0 0Z" fill="#007283"></path><path d="M0 135C-13.7 130.4 -27.5 125.8 -38.6 118.9C-49.8 111.9 -58.3 102.6 -69.9 96.3C-81.6 89.9 -96.5 86.5 -107.2 77.9C-117.9 69.3 -124.5 55.6 -128.4 41.7C-132.3 27.9 -133.7 13.9 -135 0L0 0Z" fill="#00b661"></path><path d="M0 67.5C-6.9 65.2 -13.7 62.9 -19.3 59.4C-24.9 56 -29.1 51.3 -35 48.1C-40.8 45 -48.2 43.2 -53.6 38.9C-58.9 34.6 -62.2 27.8 -64.2 20.9C-66.2 13.9 -66.8 7 -67.5 0L0 0Z" fill="#76d32f"></path></g><g transform="translate(0, 540)"><path d="M0 -270C27.4 -259.1 54.8 -248.3 74.5 -229.2C94.1 -210.2 105.9 -182.9 119.9 -165C133.9 -147.2 150 -138.6 176.4 -128.1C202.8 -117.6 239.5 -105.1 256.8 -83.4C274.1 -61.7 272.1 -30.9 270 0L0 0Z" fill="#002c4c"></path><path d="M0 -202.5C20.6 -194.3 41.1 -186.2 55.9 -171.9C70.6 -157.6 79.5 -137.2 89.9 -123.8C100.4 -110.4 112.5 -104 132.3 -96.1C152.1 -88.2 179.6 -78.8 192.6 -62.6C205.6 -46.3 204 -23.2 202.5 0L0 0Z" fill="#007283"></path><path d="M0 -135C13.7 -129.6 27.4 -124.1 37.2 -114.6C47.1 -105.1 53 -91.5 60 -82.5C66.9 -73.6 75 -69.3 88.2 -64.1C101.4 -58.8 119.7 -52.6 128.4 -41.7C137.1 -30.9 136 -15.4 135 0L0 0Z" fill="#00b661"></path><path d="M0 -67.5C6.9 -64.8 13.7 -62.1 18.6 -57.3C23.5 -52.5 26.5 -45.7 30 -41.3C33.5 -36.8 37.5 -34.7 44.1 -32C50.7 -29.4 59.9 -26.3 64.2 -20.9C68.5 -15.4 68 -7.7 67.5 0L0 0Z" fill="#76d32f"></path></g></svg>